<svg  style="display: none;">
     <defs>            
          <symbol id="sun" viewBox="0 0 24 24">
               <path fill-rule="evenodd" clip-rule="evenodd" d="M12 8C9.79086 8 8 9.79086 8 12C8 14.2091 9.79086 16 12 16C14.2091 16 16 14.2091 16 12C16 9.79086 14.2091 8 12 8ZM6 12C6 8.68629 8.68629 6 12 6C15.3137 6 18 8.68629 18 12C18 15.3137 15.3137 18 12 18C8.68629 18 6 15.3137 6 12Z" fill="#212429"/>
               <path fill-rule="evenodd" clip-rule="evenodd" d="M12 0C12.5523 0 13 0.447715 13 1V3C13 3.55228 12.5523 4 12 4C11.4477 4 11 3.55228 11 3V1C11 0.447715 11.4477 0 12 0Z" fill="#212429"/>
               <path fill-rule="evenodd" clip-rule="evenodd" d="M12 20C12.5523 20 13 20.4477 13 21V23C13 23.5523 12.5523 24 12 24C11.4477 24 11 23.5523 11 23V21C11 20.4477 11.4477 20 12 20Z" fill="#212429"/>
               <path fill-rule="evenodd" clip-rule="evenodd" d="M3.51286 3.51286C3.90339 3.12234 4.53655 3.12234 4.92708 3.51286L6.34708 4.93286C6.7376 5.32339 6.7376 5.95655 6.34708 6.34708C5.95655 6.7376 5.32339 6.7376 4.93286 6.34708L3.51286 4.92708C3.12234 4.53655 3.12234 3.90339 3.51286 3.51286Z" fill="#212429"/>
               <path fill-rule="evenodd" clip-rule="evenodd" d="M17.653 17.6529C18.0435 17.2624 18.6767 17.2624 19.0672 17.6529L20.4872 19.0729C20.8777 19.4634 20.8777 20.0966 20.4872 20.4871C20.0967 20.8776 19.4635 20.8776 19.073 20.4871L17.653 19.0671C17.2625 18.6766 17.2625 18.0434 17.653 17.6529Z" fill="#212429"/>
               <path fill-rule="evenodd" clip-rule="evenodd" d="M0 12C0 11.4477 0.447715 11 1 11H3C3.55228 11 4 11.4477 4 12C4 12.5523 3.55228 13 3 13H1C0.447715 13 0 12.5523 0 12Z" fill="#212429"/>
               <path fill-rule="evenodd" clip-rule="evenodd" d="M20 12C20 11.4477 20.4477 11 21 11H23C23.5523 11 24 11.4477 24 12C24 12.5523 23.5523 13 23 13H21C20.4477 13 20 12.5523 20 12Z" fill="#212429"/>
               <path fill-rule="evenodd" clip-rule="evenodd" d="M6.34708 17.6529C6.7376 18.0434 6.7376 18.6766 6.34708 19.0671L4.92708 20.4871C4.53655 20.8776 3.90339 20.8776 3.51286 20.4871C3.12234 20.0966 3.12234 19.4634 3.51286 19.0729L4.93286 17.6529C5.32339 17.2624 5.95655 17.2624 6.34708 17.6529Z" fill="#212429"/>
               <path fill-rule="evenodd" clip-rule="evenodd" d="M20.4872 3.51286C20.8777 3.90339 20.8777 4.53655 20.4872 4.92708L19.0672 6.34708C18.6767 6.7376 18.0435 6.7376 17.653 6.34708C17.2625 5.95655 17.2625 5.32339 17.653 4.93286L19.073 3.51286C19.4635 3.12234 20.0967 3.12234 20.4872 3.51286Z" fill="#212429"/>
          </symbol>

          <symbol  id="moon" viewBox="0 0 24 24" fill="none" xmlns="http://www.w3.org/2000/svg">
                    <path d="M18.9999 10.79C18.8426 12.4922 18.2038 14.1144 17.1581 15.4668C16.1125 16.8192 14.7034 17.8458 13.0956 18.4265C11.4878 19.0073 9.74789 19.1181 8.0794 18.7461C6.41092 18.3741 4.8829 17.5345 3.67413 16.3258C2.46536 15.117 1.62584 13.589 1.25381 11.9205C0.881777 10.252 0.992617 8.51208 1.57336 6.9043C2.15411 5.29651 3.18073 3.88737 4.53311 2.84175C5.8855 1.79614 7.5077 1.15731 9.2099 1C8.21331 2.34827 7.73375 4.00945 7.85843 5.68141C7.98312 7.35338 8.70376 8.92506 9.8893 10.1106C11.0748 11.2961 12.6465 12.0168 14.3185 12.1415C15.9905 12.2662 17.6516 11.7866 18.9999 10.79V10.79Z" stroke="currentColor" stroke-width="2" stroke-linecap="round" stroke-linejoin="round"/>
          </symbol>

          <symbol id="x"  viewBox="0 0 20 20" >
               <path fill-rule="evenodd" clip-rule="evenodd" d="M12.4714 3.52861C12.7318 3.78896 12.7318 4.21107 12.4714 4.47141L4.47141 12.4714C4.21107 12.7318 3.78896 12.7318 3.52861 12.4714C3.26826 12.2111 3.26826 11.789 3.52861 11.5286L11.5286 3.52861C11.789 3.26826 12.2111 3.26826 12.4714 3.52861Z" fill="currentColor"/>
               <path fill-rule="evenodd" clip-rule="evenodd" d="M3.52861 3.52861C3.78896 3.26826 4.21107 3.26826 4.47141 3.52861L12.4714 11.5286C12.7318 11.789 12.7318 12.2111 12.4714 12.4714C12.2111 12.7318 11.789 12.7318 11.5286 12.4714L3.52861 4.47141C3.26826 4.21107 3.26826 3.78896 3.52861 3.52861Z" fill="currentColor"/>
          </symbol>
     </defs>
</svg>




